# xmcd CD database file
#
# Track frame offsets:
#	150
#	17775
#	30450
#	42150
#	58500
#	70500
#	87975
#	103725
#	121200
#	132450
#	151725
#
# Disc length: 2577 seconds
#
# Revision: 1
# Processed by: cddbd v1.5.1PL0 Copyright (c) Steve Scherf et al.
# Submitted via: freeDBTagger 0.5
#
DISCID=850a0f0b
DTITLE=RetromaniA - thing left behind
DYEAR=2005
DGENRE=rock
TTITLE0=Blind folding
TTITLE1=the way without an end
TTITLE2=Shadow to trace
TTITLE3=Nostalgia
TTITLE4=Tawny declining sun
TTITLE5=ONE
TTITLE6=Teardrops of the winter sky
TTITLE7=parallel
TTITLE8=Divergence
TTITLE9=Curtain fall
TTITLE10=border and word,remain
EXTD=GTBP-003 2005/06/22
EXTT0=
EXTT1=
EXTT2=
EXTT3=
EXTT4=
EXTT5=
EXTT6=
EXTT7=
EXTT8=
EXTT9=
EXTT10=
PLAYORDER=
